<?xml version="1.0" encoding="iso-8859-1"?>
<!-- Uploaded to: SVG Repo, www.svgrepo.com, Generator: SVG Repo Mixer Tools -->
<svg fill="#000000" height="800px" width="800px" version="1.1" id="Layer_1" xmlns="http://www.w3.org/2000/svg" xmlns:xlink="http://www.w3.org/1999/xlink" 
	 viewBox="0 0 512.001 512.001" xml:space="preserve">
<g>
	<g>
		<path d="M509.793,412.854l-86.871-150.47c27.391-19.046,44.351-50.666,44.351-84.679c0-56.831-46.236-103.068-103.068-103.068
			c-56.831,0-103.067,46.236-103.067,103.068c0,34.021,16.969,65.646,44.352,84.683l-49.487,85.724l-49.495-85.729
			c27.391-19.046,44.353-50.667,44.353-84.679c0-56.831-46.236-103.068-103.068-103.068c-56.832,0-103.068,46.236-103.068,103.068
			c0,34.019,16.969,65.645,44.351,84.682L2.208,412.854c-6.284,10.884,1.596,24.509,14.15,24.509c9.053,0,425.218,0,479.284,0
			C508.212,437.363,516.071,423.725,509.793,412.854z M77.406,177.705c0-38.813,31.576-70.389,70.389-70.389
			c38.813,0,70.389,31.576,70.389,70.389c0,38.794-31.57,70.389-70.389,70.389C108.901,248.095,77.406,216.429,77.406,177.705z
			 M44.659,404.684l36.539-63.289l27.638,63.289H44.659z M164.93,345.762l8.824-15.284c6.285-10.885-1.596-24.509-14.15-24.509
			h-23.618c-12.568,0-20.427,13.637-14.15,24.509l8.824,15.284l-3.456,19.329l-25.706-58.862l17.115-29.646
			c18.8,5.571,39.542,5.577,58.362,0l17.116,29.646l-25.705,58.862L164.93,345.762z M186.755,404.685l27.638-63.291
			c7.048,12.206,29.504,51.104,36.54,63.291H186.755z M311.463,404.684h-22.798l-13.792-23.893l36.59-63.384V404.684z
			 M384.272,404.685h-40.13V278.82c13.439,2.655,27.306,2.535,40.13,0.001V404.685z M364.206,248.095
			c-39.372,0-70.388-32.17-70.388-70.389c-0.001-38.813,31.576-70.389,70.388-70.389c38.813,0,70.389,31.576,70.389,70.389
			C434.596,216.474,403.051,248.095,364.206,248.095z M416.949,404.685v-87.287l50.393,87.287H416.949z"/>
	</g>
</g>
</svg>